# xmcd
#
# Track frame offsets:
#	150
#	14679
#	25647
#	47705
#	64658
#	90693
#	120353
#	154124
#	179263
#
# Disc length: 2695 seconds
#
# Revision: 1
# Processed by: cddbd v1.5.2PL0 Copyright (c) Steve Scherf et al.
# Submitted via: audiograbber 1.83.01
#
DISCID=680a8509
DTITLE=Carl Verheyen - The Road Divides
DYEAR=1900
DGENRE=Blues
TTITLE0=Henry`s Farm
TTITLE1=Jerry`s Breakdown
TTITLE2=Bass Solo
TTITLE3=Slang Justice
TTITLE4=Slang Justice Jam
TTITLE5=Take One Step
TTITLE6=Eastern Steppes
TTITLE7=Topanga Hoedown
TTITLE8=All You Need is Love
EXTD=
EXTT0=
EXTT1=
EXTT2=
EXTT3=
EXTT4=
EXTT5=
EXTT6=
EXTT7=
EXTT8=
PLAYORDER=
